<?xml version="1.0" encoding="UTF-8"?>
<svg id="_Слой_2" data-name="Слой 2" xmlns="http://www.w3.org/2000/svg" viewBox="0 0 617.65 169.4">
  <defs>
    <style>
      .cls-1 {
        fill: #fab918;
      }

      .cls-1, .cls-2 {
        opacity: .6;
      }

      .cls-3 {
        fill: #fff;
      }

      .cls-2 {
        fill: #79b0dc;
      }
    </style>
  </defs>
  <g id="_Слой_2-2" data-name="Слой 2">
    <g>
      <g>
        <polygon class="cls-1" points="0 150.9 42.71 152.83 68.76 136.58 95.79 154.86 123.69 137.75 154.73 157.12 193.69 139.41 231.37 160.05 475.44 169.4 475.44 75.41 0 88.87 0 150.9"/>
        <polygon class="cls-1" points="10.14 141.41 53.97 142.85 80.62 126.14 108.3 144.36 136.89 126.75 168.71 146.04 208.68 127.7 247.37 148.23 498.84 155.24 498.84 59.7 10.14 78.71 10.14 141.41"/>
      </g>
      <g>
        <path class="cls-3" d="M291.71,132.4l-.52-33.84,6.32-7.59,17.22-1.67,8.77,10-1.78,3.79-3.46.15-5.84-8.77-14.54,2.64-.52,31.57,8.7,8.07,15.32-6.54,1.71,2.42-.6,3.79-18.18,5.73-12.6-9.74Z"/>
        <path class="cls-3" d="M331.54,140.73l.48-49.82,3.61-1.34,1.75.67.33,24.69,2.83-2.12,18.11.56v-23.16l4.39-.97,1.82,1.23-.56,50.34-3.61,1.12-2.04-.97v-22.76l-20.9-.11.33,22.68-4.8,1.23-1.75-1.26Z"/>
        <path class="cls-3" d="M375.99,141.03l-.33-50.53,4.39-1.23,1.71,1.12-.37,50.53-3.64.82-1.75-.71Z"/>
        <path class="cls-3" d="M393.06,141.03l.19-50.35,20.9-1.34,9.52,7.96-.97,18.41-5.73,6.43-17.89-.41.45,19.26-4.87,1-1.6-.97ZM416.23,116.45l1.9-16.92-7.18-4.91-12.46.63.48,21.86,17.25-.67Z"/>
        <path class="cls-3" d="M437.25,141.06l-7.92-11.97,1.38-2.27,4.54-1.38,4.76,10.97,14.98-1.52.74-13.39-18.59-6.77-5.61-4.65.26-13.01,5.58-6.4,16.55-1.04,7.55,8.85-.56,2.97-4.57,1.12-4.76-7.92-13.39,1.67-1.19,12.23,23.91,8.59.52,17.36-6.17,6.32-18,.22Z"/>
      </g>
      <g>
        <polygon class="cls-2" points="617.65 18.5 574.94 16.57 548.89 32.82 521.86 14.54 493.96 31.65 462.92 12.28 423.96 29.99 386.28 9.35 142.2 0 142.2 93.99 617.65 80.53 617.65 18.5"/>
        <polygon class="cls-2" points="607.51 27.99 563.68 26.55 537.03 43.26 509.35 25.04 480.76 42.65 448.94 23.36 408.97 41.7 370.28 21.16 118.8 14.16 118.8 109.7 607.51 90.69 607.51 27.99"/>
      </g>
      <g>
        <path class="cls-3" d="M159.66,80.61l.38-56.62,30.69-1.22.97,2.11-2.11,4.26-23.44.25.29,20.49,3.29-1.9,17.03-.51,1.18,3.84-1.94,2.7-19.52-.25.38,27.02-5.35,1.6-1.86-1.77Z"/>
        <path class="cls-3" d="M199.81,81.24l-.38-57.29,4.97-1.39,1.94,1.26-.42,57.29-4.13.93-1.98-.8Z"/>
        <path class="cls-3" d="M225.07,81.28l-8.98-13.58,1.56-2.57,5.14-1.56,5.4,12.44,16.99-1.73.84-15.18-21.08-7.67-6.37-5.27.3-14.76,6.32-7.25,18.76-1.18,8.56,10.03-.63,3.37-5.19,1.26-5.4-8.98-15.18,1.9-1.35,13.87,27.11,9.74.59,19.69-7,7.17-20.4.25Z"/>
        <path class="cls-3" d="M262.9,80.9l.55-56.49,4.09-1.52,1.98.76.38,27.99,3.2-2.4,20.53.63v-26.26l4.97-1.1,2.07,1.39-.63,57.08-4.09,1.26-2.32-1.1v-25.8l-23.69-.13.38,25.72-5.44,1.39-1.98-1.43Z"/>
      </g>
      <path class="cls-3" d="M359.5,72.39l-3.63,8.01-16.82,1.73-8.68-7.42-1.77-17.62,12.14-9.36-11.89-15.68,3.58-7.38,31.11-1.64,1.14,2.4-1.18,3.88-26.94.63-1.05,1.39,22.64,28.41,4.72-12.23,4.89,1.73,1.18,2.23-6.28,13.95,8.98,11.3-.46,2.49-4.3,2.87-7.38-9.7ZM341.37,76.48l11-1.81,2.99-7.71-11.3-14.88-8.47,7.46.68,12.02,5.1,4.93Z"/>
    </g>
  </g>
</svg>