<?xml version="1.0" encoding="UTF-8"?>
<svg xmlns="http://www.w3.org/2000/svg" viewBox="0 0 339.16 154.73">
  <defs>
    <style>
      .cls-1 {
        fill: #8da35b;
      }

      .cls-2 {
        isolation: isolate;
      }

      .cls-3 {
        mix-blend-mode: multiply;
        opacity: .8;
      }

      .cls-3, .cls-4 {
        fill: #d28d86;
      }

      .cls-5 {
        fill: #174c33;
      }

      .cls-4 {
        opacity: .7;
      }
    </style>
  </defs>
  <g class="cls-2">
    <g id="_Слой_2" data-name="Слой 2">
      <g id="_Слой_4" data-name="Слой 4">
        <g>
          <polygon class="cls-1" points="0 133.6 34.33 88.72 8.41 66.96 0 133.6"/>
          <polygon class="cls-1" points="208.21 63.03 208.21 112.12 17.68 120.34 61.27 63.03 208.21 63.03"/>
          <g>
            <polygon class="cls-3" points="146.43 88.65 97.92 63.63 146.43 38.57 208.02 38.57 281.09 63.61 208.02 88.65 146.43 88.65"/>
            <polygon class="cls-4" points="258.85 51.15 339.16 0 301.68 61.66 318.77 82.69 277.01 70.34 290.76 62.92 258.85 51.15"/>
          </g>
          <g>
            <path class="cls-5" d="M17.94,95.82h21.12l-12.95,14.65,8.43,6.28-16.35,24.85h-.26v-45.77Z"/>
            <path class="cls-5" d="M41.41,95.82h12.03l-1.96,43.81h-8.11l-1.96-43.81Z"/>
            <path class="cls-5" d="M55.99,138.78l13.21-22.49-3.07-2.42c-3.47-2.75-4.71-5.23-4.71-8.83,0-5.36,4.38-10.13,10-10.13,2.29,0,4.38.65,6.08,1.9l-8.63,13.86,2.75,2.22c4.25,3.4,6.6,7.52,6.6,12.68,0,8.76-6.28,14.97-14.52,14.97-3.01,0-5.43-.52-7.71-1.76Z"/>
            <path class="cls-5" d="M82.93,93.86h.2l16.93,19.88v-17.92h9.81v43.81h-9.81v-20.6h-7.32v20.6h-9.81v-45.77Z"/>
            <path class="cls-5" d="M130.2,124.59c0-9.02,7.71-16.74,17-16.74h.33l-8.89-12.03h22.1l-7.19,9.68,2.35,4.25-4.45,1.24,4.25,8.37,10.85,21.18-11.9-2.22c-2.48,1.44-5.43,2.22-8.63,2.22-8.96,0-15.82-6.87-15.82-15.95Z"/>
            <path class="cls-5" d="M183.03,119.16c0-14.52,6.8-24.26,15.3-24.26,1.9,0,3.66.52,5.3,1.44l-11.44,37.01,19.94-11.18c-.79,11.25-6.08,18.37-13.93,18.37-9.42,0-15.17-8.43-15.17-21.38Z"/>
            <path class="cls-5" d="M216.51,93.86h.2l16.93,19.88v-17.92h9.81v43.81h-9.81v-20.6h-7.32v20.6h-9.81v-45.77Z"/>
            <path class="cls-5" d="M248.88,95.82h12.03l-1.96,43.81h-8.11l-1.96-43.81Z"/>
            <path class="cls-5" d="M266.33,141.59v-45.77c12.16,0,20.99,6.54,20.99,16.35,0,7-4.64,12.75-12.49,15.1l-8.3,14.32h-.2Z"/>
            <path class="cls-5" d="M285.1,138.78l13.21-22.49-3.07-2.42c-3.47-2.75-4.71-5.23-4.71-8.83,0-5.36,4.38-10.13,10-10.13,2.29,0,4.38.65,6.08,1.9l-8.63,13.86,2.75,2.22c4.25,3.4,6.6,7.52,6.6,12.68,0,8.76-6.28,14.97-14.52,14.97-3.01,0-5.43-.52-7.71-1.76Z"/>
          </g>
        </g>
      </g>
    </g>
  </g>
</svg>